# xmcd CD database file
#
# Track frame offsets:
#	150
#	17358
#	33166
#	51261
#	68162
#	83565
#	109208
#	122715
#
# Disc length: 1848 seconds
#
# Revision: 0
# Processed by: cddbd v1.5.2PL0 Copyright (c) Steve Scherf et al.
# Submitted via: CDex 1.70beta2
#
DISCID=5b073608
DTITLE=Clay Bartlett - Fixin' To Break Down
DYEAR=2003
DGENRE=Country
TTITLE0=Days Come Falling Down
TTITLE1=Daniel's Blues
TTITLE2=Airstream
TTITLE3=Clay's Blues
TTITLE4=You Will Not Be Missed
TTITLE5=Shoulders of Fools
TTITLE6=Bury me
TTITLE7=Only 39 Days
EXTD=YEAR: 2003
EXTT0=
EXTT1=
EXTT2=
EXTT3=
EXTT4=
EXTT5=
EXTT6=
EXTT7=
PLAYORDER=
